<svg width="36" height="25" viewBox="0 0 36 25" fill="none" xmlns="http://www.w3.org/2000/svg">
<path d="M15.4994 0.344727H13.9124V7.60557L1.23633 1.26754C0.647379 1.83648 0.286719 2.60108 0.222243 3.4174L9.95745 8.28501H6.40816L0.207031 5.18698V6.08445L4.63351 8.29515H0.207031V9.88219H15.5146L15.4994 0.344727Z" fill="white"/>
<path d="M34.5951 23.268C35.2009 22.715 35.5833 21.9593 35.67 21.1435L25.8232 16.2252H29.3725L35.6903 19.3841V18.4968L31.1269 16.2252H35.6903V14.6382H20.2812V24.1655H21.8683V16.9047L34.5951 23.268Z" fill="white"/>
<path d="M21.8531 0.344727H20.2812V9.87205H35.7055V8.28501H31.1421L35.7055 6.01346V3.69628C35.7055 3.57966 35.7055 3.46811 35.7055 3.35656L25.8536 8.27994H22.3043L35.168 1.84557C35.0243 1.6183 34.8541 1.40893 34.661 1.22191L21.8531 7.60557V0.344727Z" fill="white"/>
<path d="M0.197266 14.6333V16.2254H4.62374L0.197266 18.4361V20.7888C0.197266 20.8902 0.197266 20.9865 0.197266 21.0879L9.93248 16.2203H13.4818L0.714449 22.604C0.8577 22.8331 1.02793 23.0442 1.22149 23.2327L13.8975 16.8998V24.1606H15.4846V14.6333H0.197266Z" fill="white"/>
<path d="M35.6902 14.6332V9.87205H20.266V0.344727H15.4998V9.87205H0.197266V14.6332H15.4998V24.1605H20.266V14.6332H35.6902Z" fill="#EC5565"/>
<path d="M9.94224 8.28509L0.207031 3.41748C0.207031 3.50875 0.207031 3.60509 0.207031 3.69635V5.18199L6.40816 8.28001L9.94224 8.28509Z" fill="#EC5565"/>
<path d="M25.8227 8.28484L35.6746 3.36146C35.6221 2.81817 35.4376 2.29596 35.1371 1.84033L22.2734 8.2747L25.8227 8.28484Z" fill="#EC5565"/>
<path d="M25.8232 16.2251L35.67 21.1485C35.6762 21.0303 35.6762 20.9118 35.67 20.7935V19.384L29.3725 16.2251H25.8232Z" fill="#EC5565"/>
<path d="M9.94224 16.2251L0.207031 21.0927C0.250283 21.6333 0.424292 22.1554 0.714074 22.6138L13.4966 16.2251H9.94224Z" fill="#EC5565"/>
<path d="M21.8535 7.60557L34.6107 1.22698C34.0754 0.728262 33.3916 0.418411 32.6637 0.344727H21.8535V7.60557Z" fill="#4658A9"/>
<path d="M35.6906 18.4918V16.2202H31.1475L35.6906 18.4918Z" fill="#4658A9"/>
<path d="M35.6906 8.28522V6.01367L31.1475 8.28522H35.6906Z" fill="#4658A9"/>
<path d="M1.24707 23.2329C1.87118 23.829 2.7012 24.1613 3.56425 24.1608H13.913V16.8999L1.24707 23.2329Z" fill="#4658A9"/>
<path d="M21.8535 16.8999V24.1607H32.3239C33.1657 24.1607 33.9766 23.844 34.5955 23.2734L21.8535 16.8999Z" fill="#4658A9"/>
<path d="M13.9124 0.344727H3.22393C2.47671 0.420927 1.77674 0.745912 1.23633 1.26754L13.9124 7.60557V0.344727Z" fill="#4658A9"/>
<path d="M0.197266 16.2202V18.4309L4.61867 16.2202H0.197266Z" fill="#4658A9"/>
<path d="M0.197266 6.06934V8.28511H4.61867L0.197266 6.06934Z" fill="#4658A9"/>
</svg>
